<svg id="Layer_1" data-name="Layer 1" xmlns="http://www.w3.org/2000/svg" viewBox="0 0 800 800"><defs><style>.cls-1{fill:#233145;}.cls-2{fill:#fdf2e4;}</style></defs><rect class="cls-1" x="155.28" y="169.1" width="494.91" height="494.47" rx="55.92"/><path class="cls-2" d="M306.89,286.23c-1.42,12.34-4.75,24.2-7.59,36.06-2.37,11.38-5.22,23.25-7.59,34.63-3.32,17.55-6.64,35.11-9.49,52.66a355.51,355.51,0,0,0,53.13-46.49c9-10,17.08-21.35,25.15-31.79,8.54-11.38,16.13-23.24,24.19-34.63,5.7-7.59,21.83.47,17.08,9.49-16.6,32.26-45.07,59.3-72.58,82.55Q312.11,402.23,295,414.33a300.91,300.91,0,0,1,87.77,40.32c4.27,2.85-.48,8.07-4.27,5.22a299.11,299.11,0,0,0-90.14-41.27l-8.54,5.69a20,20,0,0,1-.48,2.37c-3.79,23.72-7.11,47.44-10,71.64-1.42,11.38-2.85,23.24-4.27,35.1-.95,10.92-1.9,22.3-5.22,32.74-.95,3.32-6.17,1.9-6.64-.95-1.42-11.86,0-24.19.95-36.05s1.9-23.73,3.32-35.59c1.9-19.92,4.27-39.85,6.64-60.25-5.69,3.32-11.38,6.64-17.08,9.49-7.59,3.32-15.18,7.12-22.77,10-7.12,2.85-14.71,5.7-22.3,4.27-13.76-2.37-17.08-16.13-9-26.09,17.08-22.3,47.44-25.62,74-22.3,2.84-18.5,5.22-37,8.06-55.5,1.9-11.86,3.8-24.2,5.7-36.53,1.89-11.39,3.32-24.2,6.64-35.59A7.5,7.5,0,0,1,295,275.8C300.72,275.8,306.89,280.54,306.89,286.23Zm-76.38,129c-11.86,2.85-30.84,11.39-34.64,24.67-4.26,14.71,16.14,9.49,22.78,6.17,6.16-2.84,12.33-5.69,19-9,9.49-5.22,19-10.44,28-16.13.48-2.37.48-4.27.95-6.64-5.22-.48-10.43-.95-15.65-.95A74.3,74.3,0,0,0,230.51,415.27Z"/><path class="cls-2" d="M413.15,378.74c4.75,1.43,9,8.07,6.65,12.81-4.75,10.44-7.12,19-8.07,29.42-.47,5.22-1.42,10.44-1.9,15.65v5.7h.48c8.54-2.38,17.08-8.54,22.77-15.18,6.64-7.12,11.39-15.19,15.66-23.73,1.42-2.84,6.64-.47,5.21,2.38a104.25,104.25,0,0,1-15.18,25.14c-5.69,6.64-11.86,12.81-19.45,17.55-3.79,2.38-8.06,4.75-12.81,3.8-5.69-.47-9.49-3.8-11.86-8.54-2.37-3.8-3.79-9.49-4.27-13.76a97.85,97.85,0,0,1,0-16.6,108.23,108.23,0,0,1,8.54-29.89,9.75,9.75,0,0,1,9-5.69A24.57,24.57,0,0,1,413.15,378.74Zm5.7-26.56c.95.47,1.42.47,2.37.95a7.7,7.7,0,0,1,3.32,1.89,6.63,6.63,0,0,1,1.42,1.9,4.11,4.11,0,0,1,1.43,2.85v3.32a6.92,6.92,0,0,1-.95,3.32c-.48.47-.48.95-.95,1.42a.47.47,0,0,1-.48.48,4.73,4.73,0,0,1-2.37,1.9,3.62,3.62,0,0,1-2.37.94v.48a4.3,4.3,0,0,0-2.37.47,16.77,16.77,0,0,1-4.75-1c-.47,0-.47-.47-.94-.47h-.48a.46.46,0,0,0-.47-.47l-.48-.48a1.49,1.49,0,0,1-.95-.47c0-.48,0-.48-.47-.95l-.48-.48c0-.47-.47-.47-.47-.95-.47,0-.47,0-.47-.47,0-1-.48-1.42-.48-1.9-.47-1.42-.47-1.9,0-2.84a8,8,0,0,1,.48-3.33l.47-.47c.47-.95.95-1.42,1.42-2.37l.48-.48a10.2,10.2,0,0,1,2.37-1.89,11.84,11.84,0,0,1,3.32-.95Z"/><path class="cls-2" d="M493.8,291.45c-2.85,17.55-10,35.11-15.18,52.19-4.75,17.08-10,34.16-14.71,51.24a6.74,6.74,0,0,0-1,2.84c1-1,1.9-2.37,3.32-3.79,8.54-9.49,20.88-27.52,35.58-17.08,7.59,5.69-.94,15.18-8.06,10.43-.48,0-.48,0-.95.48-.47.95-1.42,1.42-2.37,2.37a83.32,83.32,0,0,1-6.17,7.12c-3.79,4.74-8.06,10-12.33,14.7a20.83,20.83,0,0,0-2.85,3.32h.47c4.27,1,6.65,4.27,10.44,6.65,8.54,5.69,19.93,4.74,28.94.95,10-4.27,16.61-11.86,24.2-19.46,2.37-2.37,7.59.95,5.21,3.8-12.33,11.86-28.46,23.72-46.49,23.25a36.84,36.84,0,0,1-12.33-3.32c-4.27-1.9-8.07-6.17-12.81-6.65a8,8,0,0,0-3.32.48c-3.32,2.84-6.17,6.17-9.49,9-6.17,22.77-11.86,46-20.4,68.32-1.43,2.84-7.12,1.42-6.64-1.9a473.36,473.36,0,0,1,9.48-56.93c-.94-1.42-1.42-2.85,0-4.74.48-1,1.43-1.9,1.9-2.85,3.32-13.76,6.64-27.52,9.49-41.28,3.8-17.07,8.07-34.63,12.34-51.71s7.11-36.05,13.75-52.18c1.43-4.27,5.22-5.7,9-5.7C488.58,281,494.75,285.28,493.8,291.45Z"/><path class="cls-2" d="M542.18,378.74c4.75,1.43,9,8.07,6.64,12.81-4.74,10.44-7.11,19-8.06,29.42-.48,5.22-1.42,10.44-1.9,15.65v5.7h.48c8.53-2.38,17.07-8.54,22.77-15.18,6.64-7.12,11.38-15.19,15.65-23.73,1.43-2.84,6.64-.47,5.22,2.38a104.25,104.25,0,0,1-15.18,25.14c-5.69,6.64-11.86,12.81-19.45,17.55-3.8,2.38-8.07,4.75-12.81,3.8-5.69-.47-9.49-3.8-11.86-8.54-2.37-3.8-3.8-9.49-4.27-13.76a97.85,97.85,0,0,1,0-16.6A107.89,107.89,0,0,1,528,383.49a9.75,9.75,0,0,1,9-5.69A24.65,24.65,0,0,1,542.18,378.74Zm5.69-26.56c1,.47,1.43.47,2.38.95a7.7,7.7,0,0,1,3.32,1.89,6.63,6.63,0,0,1,1.42,1.9,4.1,4.1,0,0,1,1.42,2.85v3.32a6.92,6.92,0,0,1-.94,3.32c-.48.47-.48.95-1,1.42a.47.47,0,0,1-.48.48,4.73,4.73,0,0,1-2.37,1.9,3.62,3.62,0,0,1-2.37.94v.48a4.29,4.29,0,0,0-2.37.47,16.7,16.7,0,0,1-4.75-1c-.47,0-.47-.47-.95-.47h-.47a.47.47,0,0,0-.48-.47l-.47-.48a1.49,1.49,0,0,1-.95-.47c0-.48,0-.48-.47-.95l-.48-.48c0-.47-.47-.47-.47-.95-.48,0-.48,0-.48-.47,0-1-.47-1.42-.47-1.9-.48-1.42-.48-1.9,0-2.84a8.19,8.19,0,0,1,.47-3.33l.48-.47c.47-.95.95-1.42,1.42-2.37l.48-.48a10.2,10.2,0,0,1,2.37-1.89,11.84,11.84,0,0,1,3.32-.95Z"/><path class="cls-2" d="M470,481.56c0-4.44,3-7.44,6.86-7.44,3.29,0,5.42,2.71,5.42,3.79a.35.35,0,0,1-.37.39c-.89,0-.71-3.72-5.34-3.72-3.15,0-5.95,2.83-5.95,6.77,0,4.26,3,7.37,6.51,7.37,2.89,0,4.41-2.28,5.09-4.27.12-.37.68-.33.52.19a6.19,6.19,0,0,1-5.86,4.6C473.44,489.24,470,486,470,481.56Z"/><path class="cls-2" d="M486.75,481.58a7.15,7.15,0,0,1,7.17-7.46c4.06,0,7.12,3.4,7.12,7.62,0,3.81-2.94,7.5-6.91,7.5A7.59,7.59,0,0,1,486.75,481.58Zm13.67.29c0-4-2.75-7.29-6.69-7.29-3.68,0-6.35,3.1-6.35,6.91s2.83,7.29,6.79,7.29C497.81,488.78,500.42,485.3,500.42,481.87Z"/><path class="cls-2" d="M506,488.89v-.05c0-.22.68-.14.68-.72V475.24c0-.66-.68-.46-.68-.72v0c0-.1.13-.14.35-.14h1.31c.23,0,.37,0,.37.14v0c0,.26-.72.06-.72.72v12.9c0,.33.18.44.41.44h6.25c.83,0,1-1.83,1.56-1.83h.1c.08,0,.17.07.1.27l-.49,1.66c-.07.21-.17.35-.4.35h-8.49C506.1,489,506,489,506,488.89Z"/><path class="cls-2" d="M519.91,488.89v-.05c0-.22.68-.14.68-.72V475.24c0-.66-.68-.46-.68-.72v0c0-.1.12-.14.35-.14h1.3c.23,0,.38,0,.38.14v0c0,.26-.73.06-.73.72v12.9a.38.38,0,0,0,.42.44h6.25c.83,0,1-1.83,1.55-1.83h.11c.08,0,.16.07.1.27l-.5,1.66c-.06.21-.16.35-.39.35h-8.49C520,489,519.91,489,519.91,488.89Z"/><path class="cls-2" d="M532.56,488.89v-.05c0-.22.62-.14.83-.7l5.07-12.9c.17-.43-.58-.43-.58-.72v0c0-.1.11-.14.23-.14h1.49c.12,0,.23,0,.23.14v0c0,.29-.79.29-.62.7l5.53,12.92c.22.56.87.48.87.7v.05c0,.1-.15.14-.38.14h-1.32c-.23,0-.35,0-.35-.14v-.05c0-.22.8-.14.58-.7l-1.41-3.25h-7.52L534,488.14c-.23.56.58.48.58.7v.05c0,.1-.13.14-.38.14h-1.24C532.68,489,532.56,489,532.56,488.89Zm10-4.46-3.75-8.82-3.43,8.82Z"/><path class="cls-2" d="M560.31,485.14c0,2.75-2.26,3.89-5,3.89H550c-.21,0-.35,0-.35-.14v-.07c0-.22.68-.12.68-.68v-12.9c0-.58-.68-.48-.68-.72v0c0-.1.14-.14.35-.14h3.5c3.12,0,5.32,1.45,5.32,3.6,0,1.62-1.12,2.82-3,3.21C558.84,481.51,560.31,483,560.31,485.14ZM551,480.38a.58.58,0,0,0,.58.62l2.71,0c2.4,0,4-1.25,4-2.86,0-2.09-1.89-3.36-4.7-3.34l-2.2,0c-.24,0-.37.14-.37.43Zm8.72,4.94c0-2.4-1.87-3.89-5.39-3.89H551v6.69a.41.41,0,0,0,.41.46h3.84C557.49,488.58,559.69,487.64,559.69,485.32Z"/><path class="cls-2" d="M564.57,488.51a.72.72,0,1,1,1.43,0,.72.72,0,1,1-1.43,0Z"/></svg>